<svg width="43" height="50" viewBox="0 0 43 50" fill="none" xmlns="http://www.w3.org/2000/svg">
<path d="M10.9192 21.6165L0 42.1886L9.91559 41.2725L14.7147 49.9985L25.6339 29.4264L10.9192 21.6165Z" fill="#E95454"/>
<path d="M12.1699 44.0084C12.4763 43.3502 12.1558 42.5639 11.5149 42.2232L10.8864 41.8886C10.258 41.5306 10.0189 40.735 10.3612 40.0909C10.7082 39.4359 11.5242 39.1858 12.1792 39.5328L13.9551 40.4755C14.5038 40.7662 15.1916 40.5552 15.4745 40.0034L15.5183 39.9189C15.8435 39.3984 15.6512 38.7106 15.1103 38.4245L9.79843 35.606C9.15126 35.2621 8.83392 34.4789 9.13562 33.8192C9.46859 33.1173 10.3096 32.8406 10.9865 33.2002L15.9138 35.8155C16.4625 36.1062 17.1503 35.8952 17.4411 35.3465L17.4692 35.2746L17.477 35.259C17.7912 34.6837 17.5708 33.9615 16.9909 33.6535L14.2271 32.1872C13.5799 31.8433 13.2626 31.0601 13.569 30.3926C13.8988 29.6985 14.7429 29.414 15.4198 29.7736L18.4728 31.3946C19.0434 31.6979 19.725 31.4447 20.0204 30.8694C20.0251 30.8616 20.0251 30.8616 20.0282 30.8538C20.0329 30.8459 20.0329 30.8459 20.036 30.8381C20.3471 30.2707 20.1752 29.5641 19.603 29.2624L16.3093 27.5147C15.6699 27.1755 15.3526 26.3923 15.6543 25.7326C15.9873 25.0307 16.8283 24.754 17.5052 25.1136L25.6309 29.4265L14.7117 49.9987L11.7025 44.5289C11.8963 44.3976 12.0651 44.235 12.1699 44.0084Z" fill="#ED6362"/>
<path d="M31.3446 21.6165L42.2638 42.1886L32.3482 41.2725L27.5491 49.9985L16.6299 29.4264L31.3446 21.6165Z" fill="#ED6362"/>
<path d="M30.0939 44.008C29.7875 43.3499 30.108 42.5636 30.7489 42.2228L31.3773 41.8883C32.0057 41.5303 32.2449 40.7346 31.9026 40.0906C31.5555 39.4356 30.7395 39.1854 30.0845 39.5325L28.3087 40.4751C27.76 40.7659 27.0722 40.5548 26.7892 40.003L26.7455 39.9186C26.4203 39.398 26.6126 38.7102 27.1535 38.4242L32.4669 35.6041C33.1141 35.2602 33.4314 34.477 33.1297 33.8173C32.7967 33.1154 31.9557 32.8387 31.2788 33.1983L26.3515 35.8136C25.8028 36.1043 25.115 35.8933 24.8243 35.3446L24.7961 35.2727L24.7883 35.257C24.4741 34.6818 24.6945 33.9596 25.2745 33.6516L28.0383 32.1853C28.6854 31.8414 29.0028 31.0582 28.6964 30.3907C28.3665 29.6966 27.5224 29.4121 26.8455 29.7717L23.7894 31.3959C23.2188 31.6991 22.5372 31.4459 22.2418 30.8706C22.2371 30.8628 22.2371 30.8628 22.234 30.855C22.2293 30.8472 22.2293 30.8472 22.2262 30.8394C21.9151 30.2719 22.087 29.5653 22.6592 29.2636L25.9529 27.5159C26.5923 27.1767 26.9096 26.3935 26.6079 25.7338C26.2749 25.0319 25.4339 24.7552 24.757 25.1148L16.6313 29.4278L27.5505 49.9999L30.5598 44.5301C30.3675 44.3973 30.1986 44.2347 30.0939 44.008Z" fill="#E95454"/>
<path d="M21.1317 36.489C31.2078 36.489 39.3762 28.3206 39.3762 18.2445C39.3762 8.16833 31.2078 0 21.1317 0C11.0555 0 2.88721 8.16833 2.88721 18.2445C2.88721 28.3206 11.0555 36.489 21.1317 36.489Z" fill="#FFCC5B"/>
<path d="M23.6064 16.1513H12.0447C11.1458 16.1513 10.408 15.4135 10.408 14.5146L10.4205 14.4021V14.377C10.408 13.4282 11.1818 12.6528 12.1322 12.6528H20.1454C21.2068 12.6528 22.1447 11.8665 22.2073 10.8035C22.2573 9.69203 21.3709 8.7541 20.2579 8.7541H11.7696C10.8332 8.7541 10.1329 7.96779 10.1454 7.02985C10.1454 7.01734 10.1454 7.01734 10.1454 7.00484C10.1454 6.99233 10.1454 6.99233 10.1454 6.97983C10.1329 6.04345 10.8316 5.25558 11.7696 5.25558H20.6519C21.7008 5.25558 22.6387 4.46928 22.7013 3.41878C22.7513 2.29482 21.8649 1.36938 20.7519 1.36938H14.2473C7.6145 4.10348 2.94043 10.6253 2.94043 18.2445C2.94043 25.8637 7.6145 32.3839 14.2489 35.1149H22.5074C23.5563 35.1149 24.4943 34.3286 24.5568 33.2781C24.6068 32.1541 23.7205 31.2303 22.6075 31.2303L13.2124 31.2287C12.1041 31.2287 11.2115 30.3017 11.2709 29.1793C11.3256 28.1288 12.2698 27.3394 13.3219 27.3394H16.9642C18.0116 27.3097 18.8573 26.4515 18.8573 25.3963C18.8573 24.3223 17.9834 23.4469 16.9079 23.4469H11.3866C10.4877 23.4469 9.74987 22.7106 9.76238 21.8102V21.6727C9.69985 20.7863 10.4127 20.0359 11.299 20.0359H23.4938C24.5552 20.0359 25.4932 19.2496 25.5557 18.1991C25.6057 17.0767 24.7178 16.1513 23.6064 16.1513Z" fill="#FDBC4B"/>
<path d="M21.1319 31.2662C13.9504 31.2662 8.10864 25.4228 8.10864 18.2429C8.10864 11.063 13.9504 5.22119 21.1319 5.22119C28.3134 5.22119 34.1552 11.0646 34.1552 18.2445C34.1552 25.4244 28.3134 31.2662 21.1319 31.2662Z" fill="#FFDB70"/>
<path d="M14.8571 23.3999C14.6523 23.5859 14.5319 23.8079 14.4366 24.0424C14.3459 24.2785 14.2803 24.527 14.2975 24.8053C14.3162 25.0851 14.4303 25.393 14.446 25.6697C14.4491 25.7057 14.4397 25.7401 14.4413 25.7745C13.916 25.0804 13.4674 24.3441 13.0969 23.5781C13.1063 23.4234 13.1297 23.2764 13.186 23.1467C13.2767 22.9216 13.4689 22.7527 13.5909 22.548C13.7112 22.3432 13.7706 22.1087 13.8222 21.8695C13.8691 21.6272 13.9066 21.3818 13.8832 21.0941C13.8613 21.0801 13.8379 21.066 13.816 21.0504C13.5831 21.1739 13.422 21.3474 13.2814 21.5381C13.1469 21.7319 13.0312 21.9414 12.9875 22.1978C12.9468 22.4557 12.9875 22.7606 12.9421 23.0122C12.9343 23.0607 12.9124 23.1029 12.8999 23.1498C12.5623 22.3838 12.2996 21.5913 12.1136 20.7831C12.1558 20.608 12.2137 20.4454 12.309 20.3172C12.4403 20.1343 12.6592 20.0265 12.8155 19.8701C12.9703 19.7107 13.0719 19.5106 13.1657 19.3011C13.2563 19.087 13.3376 18.8681 13.3658 18.593C13.347 18.5742 13.3283 18.5555 13.3095 18.5367C13.0656 18.5945 12.8796 18.718 12.7108 18.8603C12.5451 19.0057 12.3966 19.1745 12.3043 19.398C12.2152 19.6247 12.1949 19.9155 12.1011 20.1343C12.0777 20.1937 12.0401 20.2391 12.0089 20.2922C11.8557 19.4918 11.776 18.679 11.7713 17.8645C11.8541 17.6722 11.951 17.4971 12.0917 17.3815C12.2512 17.2439 12.4763 17.2001 12.6529 17.0923C12.828 16.9828 12.9609 16.8171 13.0875 16.6436C13.211 16.4639 13.3267 16.2747 13.4033 16.0183C13.3892 15.9949 13.3751 15.973 13.3611 15.9495C13.1203 15.9433 12.9249 16.0168 12.7405 16.109C12.5591 16.2075 12.3872 16.3263 12.2606 16.517C12.1339 16.7093 12.062 16.9766 11.9323 17.1579C11.8885 17.222 11.8338 17.2689 11.7807 17.3189C11.8088 16.5233 11.9073 15.7291 12.0761 14.9444C12.0839 14.9319 12.0917 14.9209 12.0996 14.9084C12.2262 14.7162 12.3669 14.5458 12.5435 14.4598C12.717 14.3691 12.9328 14.3863 13.1172 14.3269C13.3001 14.2659 13.4533 14.1409 13.6034 14.0018C13.7503 13.8579 13.8926 13.7032 14.0129 13.4703C14.0036 13.4452 13.9958 13.4187 13.9864 13.3921C13.766 13.328 13.5721 13.3515 13.3845 13.3952C13.1985 13.4452 13.0172 13.5187 12.864 13.6704C12.7108 13.8251 12.592 14.0643 12.4372 14.2019C12.37 14.2659 12.2965 14.3082 12.2199 14.3488C12.4263 13.5703 12.7061 12.8043 13.0562 12.0618C13.0625 12.0712 13.0703 12.079 13.0766 12.0884C13.1063 12.0571 13.1375 12.0274 13.1672 11.9961C13.3236 11.8414 13.4861 11.7116 13.6628 11.6725C13.8394 11.6272 14.0317 11.6976 14.2099 11.6835C14.3881 11.6679 14.5538 11.5819 14.7195 11.4803C14.8837 11.3724 15.0462 11.252 15.2057 11.0488C15.2041 11.0207 15.201 10.9925 15.1994 10.966C15.0134 10.8518 14.8336 10.8284 14.6523 10.8284C14.4725 10.8331 14.2928 10.8628 14.1208 10.9753C13.9489 11.091 13.7894 11.2958 13.6206 11.3927C13.5377 11.4443 13.4502 11.474 13.3626 11.4928C13.3658 11.4756 13.3658 11.4599 13.3689 11.4427C13.9379 10.386 14.6617 9.3871 15.5418 8.47729C14.7086 9.28236 14.0004 10.1703 13.4158 11.116C13.4174 11.0879 13.4299 11.0551 13.4299 11.0269C13.4439 10.8237 13.4533 10.6221 13.4346 10.4313C13.3736 10.0577 13.272 9.69662 12.9953 9.39179C12.9656 9.40273 12.9359 9.41367 12.9062 9.42461C12.6123 9.94204 12.5357 10.3938 12.5341 10.8065C12.5466 11.0082 12.592 11.1926 12.6529 11.3693C12.703 11.5522 12.7936 11.7132 12.9062 11.8617C12.9218 11.8836 12.9374 11.9039 12.9546 11.9258C12.6201 12.562 12.3387 13.2217 12.1121 13.8955C12.1105 13.8892 12.1121 13.8814 12.1105 13.8736C12.0652 13.6657 12.0214 13.4546 11.9542 13.2592C11.7978 12.8825 11.6071 12.5245 11.2601 12.2572C11.2335 12.2744 11.2085 12.2916 11.1819 12.3088C11.024 12.9028 11.0616 13.389 11.1679 13.8173C11.2304 14.0236 11.3257 14.2065 11.432 14.3785C11.529 14.5583 11.6618 14.7083 11.8119 14.8412C11.8166 14.8443 11.8213 14.849 11.8244 14.8522C11.6525 15.5212 11.5305 16.2012 11.4618 16.8875C11.3695 16.6858 11.2757 16.4857 11.1632 16.306C10.9099 15.9464 10.6301 15.6103 10.2174 15.3946C10.1955 15.4165 10.1736 15.4384 10.1518 15.4618C10.1424 16.1059 10.3034 16.5999 10.5191 17.0219C10.6364 17.2236 10.7786 17.394 10.9303 17.5503C11.0631 17.7035 11.2241 17.8192 11.3945 17.9223C11.3773 18.5992 11.4086 19.2792 11.4915 19.9546C11.3539 19.7795 11.2179 19.6028 11.0678 19.4512C10.7192 19.1323 10.3503 18.8384 9.88132 18.6868C9.86413 18.7133 9.84849 18.7399 9.8313 18.7665C9.98137 19.4277 10.2721 19.9045 10.6004 20.2938C10.7708 20.4782 10.96 20.6252 11.1554 20.7549C11.3117 20.8722 11.4868 20.9472 11.665 21.0144C11.7978 21.6741 11.9807 22.326 12.2121 22.9669C12.0355 22.8262 11.8619 22.6824 11.679 22.562C11.2382 22.3041 10.7864 22.0727 10.2674 22.0039C10.2565 22.0337 10.2471 22.0634 10.2362 22.0931C10.5566 22.7387 10.9756 23.1686 11.4149 23.5C11.6384 23.6547 11.8713 23.7657 12.1074 23.8595C12.2793 23.9377 12.4591 23.9721 12.6373 24.0049C12.9187 24.6208 13.2501 25.2211 13.6284 25.7995C13.4189 25.6994 13.211 25.5931 13.0015 25.515C12.4763 25.343 11.9479 25.1945 11.393 25.218C11.3898 25.2508 11.3867 25.282 11.3836 25.3149C11.8791 25.9089 12.4278 26.2606 12.9718 26.5076C13.2454 26.6186 13.519 26.6843 13.791 26.7312C13.9692 26.7702 14.1443 26.764 14.3209 26.7656C14.6148 27.1407 14.9321 27.5034 15.2698 27.8536C15.448 27.6754 15.6278 27.4956 15.806 27.3174C15.4167 26.9422 15.0556 26.5467 14.7211 26.1371C14.7039 26.0027 14.6976 25.8729 14.7164 25.7495C14.7492 25.4884 14.8977 25.2633 14.9696 25.0194C15.0384 24.774 15.0431 24.5145 15.04 24.2519C15.0322 23.9877 15.015 23.7235 14.9306 23.4312C14.9071 23.4187 14.8821 23.4093 14.8571 23.3999Z" fill="#ED6362"/>
<path d="M27.4067 23.4C27.6115 23.586 27.7318 23.808 27.8272 24.0424C27.9179 24.2785 27.9835 24.527 27.9663 24.8053C27.9476 25.0851 27.8335 25.3931 27.8178 25.6698C27.8147 25.7057 27.8241 25.7401 27.8225 25.7745C28.3478 25.0804 28.7964 24.3441 29.1669 23.5782C29.1575 23.4234 29.1341 23.2765 29.0778 23.1467C28.9871 22.9216 28.7948 22.7528 28.6729 22.548C28.5525 22.3432 28.4931 22.1087 28.4416 21.8696C28.3947 21.6273 28.3571 21.3818 28.3806 21.0942C28.4025 21.0801 28.4259 21.0661 28.4478 21.0504C28.6807 21.1739 28.8417 21.3474 28.9824 21.5381C29.1169 21.732 29.2325 21.9415 29.2763 22.1978C29.317 22.4558 29.2763 22.7606 29.3217 23.0123C29.3295 23.0607 29.3514 23.1029 29.3639 23.1498C29.7015 22.3839 29.9641 21.5913 30.1502 20.7831C30.108 20.608 30.0501 20.4454 29.9548 20.3173C29.8234 20.1344 29.6046 20.0265 29.4483 19.8702C29.2935 19.7107 29.1919 19.5106 29.0981 19.3012C29.0074 19.087 28.9262 18.8681 28.898 18.593C28.9168 18.5743 28.9355 18.5555 28.9543 18.5367C29.1982 18.5946 29.3842 18.7181 29.553 18.8603C29.7187 19.0057 29.8672 19.1745 29.9595 19.3981C30.0486 19.6248 30.0689 19.9155 30.1627 20.1344C30.1861 20.1938 30.2236 20.2391 30.2549 20.2923C30.4081 19.4919 30.4878 18.679 30.4925 17.8646C30.4097 17.6723 30.3127 17.4972 30.1721 17.3815C30.0126 17.2439 29.7875 17.2002 29.6109 17.0923C29.4358 16.9829 29.3029 16.8172 29.1763 16.6437C29.0528 16.4639 28.9371 16.2747 28.8605 16.0184C28.8746 15.9949 28.8886 15.973 28.9027 15.9496C29.1434 15.9433 29.3388 16.0168 29.5233 16.109C29.7046 16.2075 29.8766 16.3263 30.0032 16.517C30.1298 16.7093 30.2018 16.9766 30.3315 17.158C30.3753 17.2221 30.43 17.269 30.4831 17.319C30.455 16.5233 30.3565 15.7292 30.1877 14.9444C30.1799 14.9319 30.1721 14.921 30.1642 14.9085C30.0376 14.7162 29.8969 14.5458 29.7203 14.4598C29.5468 14.3692 29.331 14.3864 29.1466 14.327C28.9637 14.266 28.8105 14.1409 28.6604 14.0018C28.5135 13.858 28.3712 13.7032 28.2508 13.4703C28.2602 13.4453 28.268 13.4187 28.2774 13.3921C28.4978 13.3281 28.6917 13.3515 28.8793 13.3953C29.0653 13.4453 29.2466 13.5188 29.3998 13.6704C29.553 13.8252 29.6718 14.0643 29.8266 14.2019C29.8938 14.266 29.9673 14.3082 30.0439 14.3488C29.8406 13.5719 29.5624 12.8059 29.2107 12.0634C29.2044 12.0728 29.1966 12.0806 29.1903 12.09C29.1606 12.0587 29.1294 12.029 29.0997 11.9977C28.9434 11.843 28.7808 11.7132 28.6041 11.6742C28.4275 11.6288 28.2352 11.6992 28.057 11.6851C27.8788 11.6695 27.7131 11.5835 27.5474 11.4819C27.3832 11.374 27.2207 11.2536 27.0612 11.0504C27.0628 11.0223 27.0659 10.9941 27.0675 10.9676C27.2535 10.8535 27.4333 10.83 27.6146 10.83C27.7944 10.8347 27.9741 10.8644 28.1461 10.9769C28.3181 11.0926 28.4775 11.2974 28.6463 11.3943C28.7292 11.4459 28.8167 11.4756 28.9043 11.4944C28.9011 11.4787 28.8996 11.4616 28.898 11.4459C28.329 10.3892 27.6052 9.39027 26.7251 8.48047C27.5583 9.28553 28.2665 10.1734 28.8511 11.1192C28.8496 11.0911 28.837 11.0582 28.837 11.0301C28.823 10.8269 28.8136 10.6252 28.8324 10.4345C28.8933 10.0609 28.9949 9.69979 29.2716 9.39496C29.3013 9.4059 29.331 9.41684 29.3607 9.42779C29.6546 9.94522 29.7312 10.397 29.7328 10.8097C29.7203 11.0113 29.6749 11.1958 29.614 11.3724C29.564 11.5553 29.4733 11.7164 29.3607 11.8649C29.3451 11.8868 29.3295 11.9071 29.3123 11.929C29.6468 12.5652 29.9282 13.2249 30.1549 13.8986C30.1564 13.8924 30.1549 13.8846 30.1564 13.8767C30.1986 13.6657 30.2424 13.4547 30.3096 13.2593C30.4659 12.8825 30.6567 12.5246 31.0037 12.2572C31.0303 12.2744 31.0568 12.2901 31.0834 12.3073C31.2413 12.9013 31.2038 13.3875 31.099 13.8158C31.0365 14.0221 30.9412 14.205 30.8349 14.377C30.7379 14.5568 30.6051 14.7068 30.455 14.8397C30.4503 14.8428 30.4456 14.8475 30.4425 14.8506C30.6144 15.5197 30.7364 16.1997 30.8052 16.886C30.8974 16.6843 30.9912 16.4842 31.1037 16.3044C31.357 15.9449 31.6368 15.6088 32.0495 15.3931C32.0714 15.415 32.0933 15.4369 32.1151 15.4587C32.1245 16.1028 31.9635 16.5968 31.7478 17.0188C31.6305 17.2205 31.4883 17.3909 31.3367 17.5472C31.2038 17.7004 31.0428 17.8161 30.8724 17.9193C30.8896 18.5961 30.8583 19.2761 30.7755 19.9515C30.913 19.7764 31.049 19.5997 31.1991 19.4481C31.5477 19.1292 31.9166 18.8353 32.3856 18.6837C32.4028 18.7103 32.4184 18.7368 32.4356 18.7634C32.2855 19.4247 31.9948 19.9014 31.6665 20.2907C31.4961 20.4751 31.307 20.6221 31.1116 20.7518C30.9552 20.8691 30.7802 20.9441 30.6019 21.0113C30.4691 21.671 30.2862 22.3229 30.0548 22.9638C30.2315 22.8231 30.405 22.6793 30.5879 22.5589C31.0287 22.301 31.4805 22.0696 31.9995 22.0009C32.0104 22.0306 32.0198 22.0603 32.0307 22.09C31.7103 22.7356 31.2913 23.1655 30.8521 23.4969C30.6285 23.6516 30.3956 23.7626 30.1595 23.8564C29.9876 23.9346 29.8078 23.969 29.6296 24.0018C29.3482 24.6177 29.0168 25.218 28.6385 25.7964C28.848 25.6963 29.0559 25.59 29.2654 25.5119C29.7906 25.3399 30.319 25.1914 30.8739 25.2149C30.8771 25.2477 30.8802 25.279 30.8833 25.3118C30.3878 25.9058 29.8391 26.2575 29.2951 26.5045C29.0215 26.6155 28.7479 26.6812 28.4759 26.7281C28.2977 26.7672 28.1227 26.7609 27.946 26.7625C27.6521 27.1376 27.3348 27.5003 26.9971 27.8505C26.8189 27.6723 26.6391 27.4925 26.4609 27.3143C26.8502 26.9391 27.2113 26.5436 27.5458 26.1341C27.563 25.9996 27.5693 25.8699 27.5505 25.7464C27.5177 25.4853 27.3692 25.2602 27.2973 25.0163C27.2285 24.7709 27.2238 24.5114 27.2269 24.2488C27.2347 23.9846 27.2519 23.7204 27.3363 23.4281C27.3567 23.4187 27.3817 23.4093 27.4067 23.4Z" fill="#ED6362"/>
<path d="M26.0884 25H16.1421L16.4805 22.8467L21.7817 17.8735C22.8687 16.855 23.5898 16.0278 23.9453 15.3921C24.3008 14.7563 24.4341 14.1343 24.3452 13.5259C24.2017 12.6782 23.7129 12.2441 22.8789 12.2236C22.2227 12.21 21.6724 12.439 21.228 12.9106C20.7905 13.3823 20.5239 14.001 20.4282 14.7666L17.5366 14.7769C17.5913 13.8472 17.8682 13.0029 18.3672 12.2441C18.8662 11.4854 19.5293 10.8975 20.3564 10.4805C21.1904 10.0566 22.0894 9.84814 23.0532 9.85498C24.4409 9.88232 25.521 10.272 26.2935 11.0239C27.0659 11.7759 27.4077 12.7773 27.3188 14.0283C27.2095 15.4365 26.3789 16.9062 24.8271 18.4375L23.3506 19.8423L20.2949 22.5903L26.4678 22.6108L26.0884 25Z" fill="#E95454"/>
</svg>
