<svg width="67" height="75" viewBox="0 0 67 75" fill="none" xmlns="http://www.w3.org/2000/svg">
<path d="M17.9498 14.7153L13.6202 10.3766C12.6158 9.37026 11.2798 8.81616 9.85808 8.81616C8.43634 8.81616 7.10034 9.3704 6.09613 10.3766L2.95764 13.5219C0.891724 15.5919 0.891724 18.9602 2.95764 21.0303L7.29643 25.3781C7.72077 25.8033 8.27732 26.0159 8.83417 26.0159C9.38928 26.0159 9.94469 25.8043 10.3687 25.3813C11.218 24.5338 17.0987 18.6338 17.9468 17.7874C18.7959 16.9401 18.7974 15.5647 17.9498 14.7153Z" fill="#105C6E"/>
<path d="M33.3093 0.43457C32.1096 0.43457 31.137 1.40721 31.137 2.60693V9.5585C31.137 10.7582 32.1096 11.7309 33.3093 11.7309C34.5091 11.7309 35.4817 10.7582 35.4817 9.5585V2.60693C35.4817 1.40721 34.5091 0.43457 33.3093 0.43457Z" fill="#26879C"/>
<path d="M38.6679 0H27.9509C26.7512 0 25.7786 0.972639 25.7786 2.17236C25.7786 3.37209 26.7512 4.34473 27.9509 4.34473H38.6679C39.8676 4.34473 40.8403 3.37209 40.8403 2.17236C40.8403 0.972639 39.8676 0 38.6679 0Z" fill="#DE513C"/>
<path d="M33.3094 0H27.9509C26.7512 0 25.7786 0.972639 25.7786 2.17236C25.7786 3.37209 26.7512 4.34473 27.9509 4.34473H33.3094V0Z" fill="#FC6249"/>
<path d="M56.8644 17.1783C50.5729 10.8738 42.2076 7.40161 33.3094 7.40161C24.4113 7.40161 16.0459 10.8738 9.75449 17.1783C3.4642 23.4816 0 31.8621 0 40.7758C0 49.6894 3.4642 58.07 9.75449 64.3733C16.0459 70.6778 24.4113 74.1499 33.3094 74.1499C42.2076 74.1499 50.5729 70.6778 56.8644 64.3733C63.1547 58.07 66.6189 49.6894 66.6189 40.7758C66.6189 31.8621 63.1547 23.4816 56.8644 17.1783Z" fill="#DE513C"/>
<path d="M33.3094 7.40161C24.4113 7.40161 16.0459 10.8738 9.75449 17.1783C3.4642 23.4816 0 31.8621 0 40.7758C0 49.6894 3.4642 58.07 9.75449 64.3733C16.0459 70.6778 24.4113 74.1499 33.3094 74.1499V7.40161Z" fill="#FC6249"/>
<path d="M33.3094 15.719C19.5195 15.719 8.30054 26.9594 8.30054 40.7758C8.30054 54.5921 19.5195 65.8327 33.3094 65.8327C47.0992 65.8327 58.3182 54.5921 58.3182 40.7758C58.3182 26.9594 47.0992 15.719 33.3094 15.719Z" fill="#96D1D9"/>
<path d="M33.3094 15.719C19.5195 15.719 8.30054 26.9594 8.30054 40.7758C8.30054 54.5921 19.5195 65.8327 33.3094 65.8327V15.719Z" fill="#F4F2E6"/>
<path d="M33.3093 21.1453C34.5091 21.1453 35.4817 20.1726 35.4817 18.9729V15.8146C34.7655 15.7526 34.0413 15.719 33.3093 15.719C32.5774 15.719 31.8531 15.7526 31.137 15.8146V18.9729C31.137 20.1726 32.1096 21.1453 33.3093 21.1453Z" fill="#105C6E"/>
<path d="M33.3093 60.4062C32.1096 60.4062 31.137 61.3789 31.137 62.5786V65.7369C31.8531 65.7989 32.5774 65.8325 33.3093 65.8325C34.0413 65.8325 34.7655 65.7989 35.4817 65.7369V62.5786C35.4817 61.3789 34.5091 60.4062 33.3093 60.4062Z" fill="#105C6E"/>
<path d="M58.2233 38.6035H55.1123C53.9126 38.6035 52.9399 39.5762 52.9399 40.7759C52.9399 41.9756 53.9126 42.9482 55.1123 42.9482H58.2233C58.285 42.2321 58.3183 41.5078 58.3183 40.7759C58.3183 40.0439 58.285 39.3197 58.2233 38.6035Z" fill="#105C6E"/>
<path d="M13.6789 40.7759C13.6789 39.5762 12.7062 38.6035 11.5065 38.6035H8.39554C8.33385 39.3197 8.30054 40.0439 8.30054 40.7759C8.30054 41.5078 8.33385 42.2321 8.39554 42.9482H11.5065C12.7062 42.9482 13.6789 41.9756 13.6789 40.7759Z" fill="#105C6E"/>
<path d="M38.6678 39.5221H35.603V30.7361C35.603 29.5364 34.6304 28.5637 33.4307 28.5637C32.2309 28.5637 31.2583 29.5364 31.2583 30.7361V41.6945C31.2583 42.8942 32.2309 43.8669 33.4307 43.8669H38.6678C39.8675 43.8669 40.8402 42.8942 40.8402 41.6945C40.8402 40.4948 39.8675 39.5221 38.6678 39.5221Z" fill="#105C6E"/>
</svg>
