<svg width="125" height="115" viewBox="0 0 125 115" fill="none" xmlns="http://www.w3.org/2000/svg">
<path d="M9.48276 36.1792C9.48276 19.2933 22.0878 3.56932 38.3492 1.30712C36.8653 1.10203 35.369 0.998967 33.8707 1.00001C15.7175 1.00001 1 17.9285 1 36.1792C1 82.0187 62.5 114 62.5 114C62.5 114 64.0905 113.17 66.7414 111.603C52.8471 103.388 9.48276 74.6762 9.48276 36.1792Z" fill="#FF5023"/>
<path d="M91.1293 1.00024C79.2605 1.00129 68.3143 7.44018 62.5 17.8434C56.6857 7.44018 45.7395 1.00129 33.8707 1.00024C15.7175 1.00024 1 17.9288 1 36.1794C1 82.0189 62.5 114 62.5 114C62.5 114 124 82.0189 124 36.1794C124 17.9288 109.283 1.00024 91.1293 1.00024Z" fill="#FF6243"/>
<path d="M62.5 114L62.3847 114.222L62.5 114.282L62.6153 114.222L62.5 114ZM62.5 114C62.6153 114.222 62.6156 114.222 62.6162 114.221L62.6184 114.22L62.6271 114.216L62.6609 114.198C62.6909 114.182 62.7353 114.159 62.7938 114.128C62.9109 114.065 63.0843 113.972 63.3103 113.849C63.7622 113.603 64.4244 113.236 65.2669 112.753C66.9518 111.787 69.3579 110.357 72.2448 108.497C78.018 104.777 85.7167 99.3396 93.4165 92.466C108.805 78.7286 124.25 59.2101 124.25 36.1794C124.25 17.8125 109.441 0.750244 91.1293 0.750244C79.3164 0.75128 68.4111 7.08112 62.5 17.3369C56.5889 7.08112 45.6836 0.75128 33.8707 0.750244C15.5585 0.750244 0.75 17.8125 0.75 36.1794C0.75 59.2101 16.1948 78.7286 31.5835 92.466C39.2833 99.3396 46.982 104.777 52.7552 108.497C55.6421 110.357 58.0482 111.787 59.7331 112.753C60.5756 113.236 61.2378 113.603 61.6897 113.849C61.9157 113.972 62.0891 114.065 62.2062 114.128C62.2315 114.141 62.2542 114.153 62.2742 114.164C62.3004 114.178 62.3221 114.189 62.3391 114.198L62.3729 114.216L62.3816 114.22L62.3838 114.221C62.3844 114.222 62.3847 114.222 62.5 114Z" stroke="black" stroke-opacity="0.75" stroke-width="0.5"/>
</svg>
