<svg width="124" height="113" viewBox="0 0 124 113" fill="none" xmlns="http://www.w3.org/2000/svg">
<path d="M90.8621 0.000244141C78.8968 0.00128519 67.8616 6.44018 62 16.8434C56.1384 6.44018 45.1032 0.00128519 33.1379 0.000244141C14.8371 0.000244141 0 16.9288 0 35.1794C0 81.0189 62 113 62 113C62 113 124 81.0189 124 35.1794C124 16.9288 109.163 0.000244141 90.8621 0.000244141Z" fill="white" fill-opacity="0.72"/>
<path d="M61.7822 16.9661L62 17.3527L62.2178 16.9661C68.035 6.64174 78.9868 0.251277 90.8621 0.250244C109.006 0.250244 123.75 17.047 123.75 35.1794C123.75 57.9874 108.321 77.379 92.8343 91.0923C85.0966 97.944 77.3578 103.366 71.5529 107.076C68.6507 108.931 66.2325 110.357 64.5405 111.319C63.6945 111.8 63.03 112.165 62.5774 112.41C62.3511 112.532 62.1778 112.624 62.0612 112.686C62.0387 112.698 62.0183 112.708 62 112.718C61.9817 112.708 61.9613 112.698 61.9388 112.686C61.8222 112.624 61.6489 112.532 61.4226 112.41C60.97 112.165 60.3055 111.8 59.4595 111.319C57.7675 110.357 55.3493 108.931 52.4471 107.076C46.6422 103.366 38.9034 97.944 31.1657 91.0923C15.6792 77.379 0.25 57.9874 0.25 35.1794C0.25 17.047 14.9942 0.250244 33.1379 0.250244C45.0132 0.251277 55.9651 6.64174 61.7822 16.9661Z" stroke="black" stroke-opacity="0.75" stroke-width="0.5"/>
</svg>
