<svg width="40" height="40" viewBox="0 0 40 40" fill="none" xmlns="http://www.w3.org/2000/svg">
<path d="M20 0C8.972 0 0 8.972 0 20C0 31.028 8.972 40 20 40C31.028 40 40 31.028 40 20C40 8.972 31.028 0 20 0ZM28.372 21.48L20 29.852L11.628 21.48C11.1107 20.9693 10.6999 20.361 10.4196 19.6903C10.1392 19.0196 9.99487 18.2999 9.99487 17.573C9.99487 16.8461 10.1392 16.1264 10.4196 15.4557C10.6999 14.785 11.1107 14.1767 11.628 13.666C12.1386 13.149 12.7469 12.7385 13.4174 12.4583C14.0879 12.1782 14.8073 12.0339 15.534 12.0339C16.2607 12.0339 16.9801 12.1782 17.6506 12.4583C18.3211 12.7385 18.9294 13.149 19.44 13.666L20 14.224L20.558 13.666C21.0686 13.149 21.6769 12.7385 22.3474 12.4583C23.0179 12.1782 23.7373 12.0339 24.464 12.0339C25.1907 12.0339 25.9101 12.1782 26.5806 12.4583C27.2511 12.7385 27.8594 13.149 28.37 13.666C28.8874 14.1766 29.2984 14.7848 29.5789 15.4554C29.8594 16.126 30.0039 16.8457 30.0041 17.5726C30.0043 18.2995 29.8601 19.0192 29.58 19.69C29.2998 20.3607 28.8892 20.9692 28.372 21.48Z" fill="#939393"/>
</svg>
