<svg width="77" height="61" viewBox="0 0 77 61" fill="none" xmlns="http://www.w3.org/2000/svg">
<path d="M75.8721 59.5876H1.12793C1.12793 57.7736 1.25717 55.9883 1.50684 54.2441C2.33575 48.4599 4.48763 43.1028 7.64877 38.4907C14.3805 28.6624 25.688 22.2156 38.5 22.2156C46.9577 22.2156 54.7586 25.0248 61.021 29.7621C64.0664 32.0644 66.7494 34.8243 68.9647 37.9373C71.6118 41.6547 73.5951 45.878 74.7424 50.4332C75.4796 53.3629 75.8721 56.4294 75.8721 59.5876Z" fill="#39AAFF"/>
<path d="M47.8224 41.1302C47.8224 39.6721 43.6485 38.4907 38.4999 38.4907C33.3514 38.4907 29.1775 39.6721 29.1775 41.1302C29.1775 42.5877 33.3514 43.7691 38.4999 43.7691C43.6485 43.7691 47.8224 42.5877 47.8224 41.1302Z" fill="#2584F6"/>
<path d="M75.8721 59.5876H69.8564C69.8564 56.4294 69.464 53.3629 68.7267 50.4332C67.5794 45.878 65.5961 41.6547 62.949 37.9373C60.7337 34.8243 58.0508 32.0644 55.0054 29.7621C49.4949 25.5929 42.792 22.9176 35.498 22.3354C36.4891 22.2561 37.4895 22.2156 38.5 22.2156C46.9577 22.2156 54.7586 25.0248 61.021 29.7621C64.0664 32.0644 66.7493 34.8243 68.9647 37.9373C71.6118 41.6547 73.595 45.878 74.7424 50.4332C75.4796 53.3629 75.8721 56.4294 75.8721 59.5876Z" fill="#2584F6"/>
<path d="M41.6582 50.3052C41.6582 52.48 39.8958 54.2441 37.7193 54.2441H1.50684C2.33575 48.46 4.48763 43.1029 7.64877 38.4907H21.3267C23.5032 38.4907 25.2656 40.2531 25.2656 42.4279C25.2656 44.6039 27.028 46.3668 29.2046 46.3668H37.7193C38.8066 46.3668 39.7918 46.8074 40.5044 47.52C41.2176 48.2332 41.6582 49.2178 41.6582 50.3052Z" fill="#65EFA7"/>
<path d="M75.8721 59.5875H60.8242C59.5606 59.5875 58.415 59.0747 57.5879 58.2475C56.7589 57.4186 56.2461 56.2743 56.2461 55.0106C56.2461 52.4828 58.2958 50.4331 60.8242 50.4331H74.7424C75.4796 53.3628 75.8721 56.4293 75.8721 59.5875Z" fill="#65EFA7"/>
<path d="M75.8721 59.5875H69.8565C69.8565 56.4293 69.4641 53.3628 68.7268 50.4331H74.7424C75.4797 53.3628 75.8721 56.4293 75.8721 59.5875Z" fill="#3AD391"/>
<path d="M68.9647 37.9371H41.2341C40.1061 37.9371 39.0834 37.4801 38.3437 36.7399C37.6035 36.0014 37.1465 34.9786 37.1465 33.8495C37.1465 31.5919 38.977 29.762 41.2341 29.762H61.021C64.0664 32.0642 66.7494 34.8241 68.9647 37.9371Z" fill="#65EFA7"/>
<path d="M68.9647 37.9371H62.9491C60.7337 34.8241 58.0508 32.0642 55.0054 29.762H61.021C64.0664 32.0642 66.7494 34.8241 68.9647 37.9371Z" fill="#3AD391"/>
<path d="M53.8398 16.4678C53.8398 23.5467 43.1292 35.8153 39.6074 39.6579C39.0117 40.3082 37.9883 40.3082 37.3926 39.6579C33.8708 35.8153 23.1602 23.5467 23.1602 16.4678C23.1602 7.99538 30.0282 1.12793 38.5 1.12793C46.9718 1.12793 53.8398 7.99538 53.8398 16.4678Z" fill="#FF5656"/>
<path d="M38.5 26.4458C32.8198 26.4458 28.1982 21.8242 28.1982 16.144C28.1982 10.4633 32.8198 5.84229 38.5 5.84229C44.1802 5.84229 48.8018 10.4633 48.8018 16.144C48.8018 21.8242 44.1802 26.4458 38.5 26.4458Z" fill="#F72D2D"/>
<path d="M46.8467 16.144C46.8467 20.7539 43.1098 24.4907 38.5 24.4907C33.8902 24.4907 30.1533 20.7539 30.1533 16.144C30.1533 11.5342 33.8902 7.79736 38.5 7.79736C43.1098 7.79736 46.8467 11.5342 46.8467 16.144Z" fill="#FFF0D0"/>
<path d="M69.9023 37.3086C65.5644 31.2049 59.6446 26.5545 52.7354 23.8075C54.0878 21.164 54.9678 18.6185 54.9678 16.4678C54.9678 7.38735 47.5804 0 38.5 0C29.4196 0 22.0322 7.38735 22.0322 16.4678C22.0322 18.4646 22.7801 20.9202 24.2617 23.8105C22.2502 24.6124 20.2998 25.5852 18.4499 26.7155C17.9188 27.0404 17.7508 27.7347 18.0757 28.2664C18.2883 28.6142 18.6596 28.8063 19.0397 28.8063C19.24 28.8063 19.4433 28.7528 19.6266 28.6406C21.4477 27.5274 23.3722 26.5739 25.3579 25.8008C26.6144 27.9427 28.2223 30.2914 30.1821 32.8421C30.5622 33.3362 31.2701 33.429 31.7641 33.0495C32.2582 32.6694 32.3504 31.9615 31.9709 31.4675C26.9452 24.9267 24.2881 19.7399 24.2881 16.4678C24.2881 8.63101 30.6638 2.25586 38.5 2.25586C46.3368 2.25586 52.7119 8.63101 52.7119 16.4678C52.7119 19.2236 50.7792 23.4286 47.1222 28.6277C44.0627 32.9767 40.5802 36.9279 38.7761 38.896C38.6792 39.0017 38.5617 39.0176 38.5006 39.0176C38.4389 39.0176 38.3214 39.0017 38.2245 38.896C37.5395 38.1481 36.4621 36.9503 35.2202 35.4851C34.8178 35.0099 34.1058 34.9511 33.6305 35.3535C33.1558 35.7565 33.0971 36.4686 33.4995 36.9432C34.7643 38.436 35.8629 39.6579 36.5614 40.4198C37.0578 40.9621 37.7651 41.2734 38.5006 41.2734C39.2355 41.2734 39.9428 40.9621 40.4392 40.4198C40.8087 40.0168 41.22 39.5621 41.6623 39.0646H68.3772C70.5573 42.231 72.1992 45.6782 73.269 49.3046H70.1185C69.4957 49.3046 68.9905 49.8098 68.9905 50.4326C68.9905 51.0559 69.4957 51.5605 70.1185 51.5605H73.8541C74.3611 53.8105 74.656 56.1174 74.7271 58.4597H60.8342C60.8307 58.4597 60.8277 58.4591 60.8242 58.4591C59.9025 58.4591 59.036 58.1007 58.385 57.4498C57.733 56.7971 57.374 55.9312 57.374 55.0107C57.374 53.1085 58.9214 51.5605 60.8242 51.5605H64.141C64.7637 51.5605 65.2689 51.0559 65.2689 50.4326C65.2689 49.8098 64.7637 49.3046 64.141 49.3046H60.8242C57.6777 49.3046 55.1182 51.8642 55.1182 55.0107C55.1182 56.2725 55.527 57.4721 56.2802 58.4597H2.2729C2.30521 57.4222 2.38275 56.3924 2.50142 55.3714H37.7193C40.5132 55.3714 42.7861 53.0985 42.7861 50.3051C42.7861 48.9516 42.2592 47.6791 41.3022 46.7221C40.3452 45.7652 39.0728 45.2382 37.7193 45.2382H29.2046C27.6543 45.2382 26.3936 43.9775 26.3936 42.4272C26.3936 39.6344 24.1207 37.3621 21.3267 37.3621H9.86645C11.4978 35.2648 13.3695 33.3303 15.4673 31.602C15.9479 31.2061 16.0166 30.4952 15.6207 30.0141C15.2247 29.5335 14.5139 29.4648 14.0327 29.8614C5.11446 37.2099 0 48.0451 0 59.5876C0 60.2109 0.505219 60.7155 1.12793 60.7155H75.8721C76.4948 60.7155 77 60.2109 77 59.5876C77 51.5458 74.5456 43.8418 69.9023 37.3086ZM57.3752 28.6341H49.8604C50.489 27.6948 51.0882 26.7454 51.6416 25.799C53.6448 26.5786 55.5611 27.5279 57.3752 28.6341ZM48.2854 30.89H60.6532C62.878 32.6101 64.9035 34.5922 66.6935 36.8093H43.6203C45.0972 35.0645 46.7298 33.0348 48.2854 30.89ZM21.3267 39.6185C22.877 39.6185 24.1377 40.8786 24.1377 42.4278C24.1377 45.2218 26.4106 47.4947 29.2046 47.4947H37.7193C38.4706 47.4947 39.1762 47.7866 39.7072 48.3177C40.2377 48.8482 40.5303 49.5543 40.5303 50.3051C40.5303 51.8554 39.2696 53.1161 37.7193 53.1161H2.83627C3.70924 48.2772 5.55153 43.6926 8.24564 39.6185H21.3267Z" fill="black"/>
<path d="M47.9746 16.144C47.9746 10.9197 43.7243 6.66943 38.5 6.66943C33.2757 6.66943 29.0254 10.9197 29.0254 16.144C29.0254 21.3684 33.2757 25.6187 38.5 25.6187C43.7243 25.6187 47.9746 21.3684 47.9746 16.144ZM31.2812 16.144C31.2812 12.1634 34.5193 8.92529 38.5 8.92529C42.4807 8.92529 45.7188 12.1634 45.7188 16.144C45.7188 20.1241 42.4807 23.3628 38.5 23.3628C34.5193 23.3628 31.2812 20.1247 31.2812 16.144Z" fill="black"/>
<path d="M61.4952 12.9072C61.4941 12.9072 61.4929 12.9072 61.4917 12.9072C60.8702 12.9072 60.3655 13.4101 60.3638 14.0322C60.362 14.6549 60.8655 15.1613 61.4888 15.1631L63.1713 15.1678H63.1748C63.7963 15.1678 64.301 14.6649 64.3027 14.0434C64.3045 13.4201 63.801 12.9137 63.1777 12.9119L61.4952 12.9072Z" fill="black"/>
<path d="M60.7761 11.1354C60.9665 11.1354 61.1592 11.0872 61.336 10.9856L62.7958 10.1484C63.3363 9.83884 63.5231 9.14916 63.2129 8.6087C62.9033 8.06882 62.2143 7.882 61.6738 8.1916L60.2139 9.02873C59.6735 9.33891 59.4867 10.028 59.7968 10.5685C60.0048 10.9321 60.3849 11.1354 60.7761 11.1354Z" fill="black"/>
<path d="M60.1844 19.0338L61.6395 19.8792C61.8175 19.9826 62.0125 20.0319 62.2052 20.0319C62.5936 20.0319 62.9719 19.831 63.181 19.4709C63.4941 18.9322 63.3114 18.2419 62.7727 17.9288L61.3182 17.0834C60.7795 16.7703 60.0892 16.953 59.7761 17.4917C59.463 18.0304 59.6457 18.7207 60.1844 19.0338Z" fill="black"/>
<path d="M13.8225 15.1624L15.505 15.1671H15.5085C16.1301 15.1671 16.6347 14.6642 16.6365 14.0421C16.6382 13.4193 16.1348 12.913 15.5115 12.9112L13.829 12.9065C13.8278 12.9065 13.8266 12.9065 13.8254 12.9065C13.2039 12.9065 12.6993 13.4094 12.6975 14.0309C12.6958 14.6542 13.1992 15.1606 13.8225 15.1624Z" fill="black"/>
<path d="M15.664 17.0886L14.2042 17.9257C13.6637 18.2353 13.4769 18.925 13.7871 19.4649C13.9956 19.8285 14.3757 20.0318 14.7664 20.0318C14.9567 20.0318 15.1494 19.9836 15.3268 19.882L16.7867 19.0448C17.3271 18.7353 17.5134 18.0456 17.2038 17.5057C16.8936 16.9652 16.2045 16.7784 15.664 17.0886Z" fill="black"/>
<path d="M14.2273 10.1455L15.6819 10.9909C15.8605 11.0949 16.0555 11.1442 16.2476 11.1442C16.6365 11.1442 17.0148 10.9427 17.224 10.5826C17.5371 10.0439 17.3544 9.35362 16.8157 9.0405L15.3605 8.19514C14.8224 7.88203 14.1316 8.06473 13.819 8.60343C13.5059 9.14213 13.6886 9.8324 14.2273 10.1455Z" fill="black"/>
</svg>
