<svg width="80" height="54" viewBox="0 0 80 54" fill="none" xmlns="http://www.w3.org/2000/svg">
<path d="M10.1938 19.0206C13.5688 7.58307 27.4188 2.96433 38.1063 2.92683C48.2251 2.88933 60.3001 5.92683 67.0188 14.1206C68.5251 15.9518 69.5813 18.1018 69.9813 20.4268C70.8063 25.1581 68.3438 30.0393 64.5751 32.9331C61.1445 35.5779 57.1663 37.4228 52.9313 38.3331C50.6063 38.8331 48.1938 39.1893 45.8126 39.3831C42.7438 39.6268 39.5876 39.5893 36.5188 39.3643C33.8563 39.1706 31.1626 38.8206 28.5501 38.3081C23.6938 37.3456 18.4376 35.9143 14.5563 32.7581C12.7688 31.3018 11.3688 29.1518 10.6376 26.9956C9.86256 24.7456 9.51256 21.3331 10.1938 19.0206Z" fill="#855C52"/>
<path d="M79.825 24.6206C79.8688 22.3018 79.425 19.9206 78.3 17.8456C77.5188 16.3956 76.375 15.1019 74.8688 14.2581C74.1 13.8268 73.2563 13.5269 72.375 13.3519C71.3875 13.1581 70.4563 13.1519 69.6125 12.7269C68.8625 12.3519 68.325 11.5081 67.7688 10.8893C67.15 10.2143 66.5 9.5706 65.8188 8.96435C64.4518 7.74198 62.9771 6.64584 61.4125 5.68935C57.8188 3.47685 53.8125 1.9581 49.6938 1.15185C42.1125 -0.3294 33.7563 -0.648149 26.3438 1.80185C21.8875 3.27685 17.5 5.3831 13.9563 8.5456C13.1876 9.22777 12.4807 9.97651 11.8438 10.7831C11.2938 11.4831 10.7813 12.1206 10.0125 12.6081C9.78127 12.7519 9.58127 12.8769 9.31252 12.9269C8.10002 13.1456 6.86877 13.3581 5.72502 13.8206C2.53127 15.1019 0.775023 19.4956 0.356273 22.6269C0.0375226 25.0019 -0.0124774 27.5956 1.38127 29.6394C3.00002 32.0081 6.06252 31.8644 7.80002 33.9519C9.23127 35.6706 9.52502 38.2144 10.6188 40.1519C12.2375 43.0206 14.5438 45.4456 17.2 47.3769C22.4 51.1456 28.8563 53.1144 35.2188 53.6331C38.8188 53.9269 42.7063 53.8331 46.2813 53.3269C53.1 52.3581 59.7313 49.1706 64.4938 44.1644C66.0813 42.4894 67.4563 40.6081 68.5313 38.5644C69.0813 37.5144 69.55 36.4144 69.9375 35.2956C70.6375 33.2519 71.925 33.0144 73.8375 32.5269C74.65 32.3206 75.4313 32.0206 76.15 31.6081C77.5563 30.7956 78.5938 29.5769 79.1688 28.1394C79.6188 27.0206 79.8 25.8144 79.825 24.6206ZM10.1938 19.0206C13.5688 7.5831 27.4188 2.96435 38.1063 2.92685C48.225 2.88935 60.3 5.92685 67.0188 14.1206C68.525 15.9519 69.5813 18.1019 69.9813 20.4268C70.8063 25.1581 68.3438 30.0394 64.575 32.9331C61.1444 35.5779 57.1663 37.4228 52.9313 38.3331C50.6063 38.8331 48.1938 39.1894 45.8125 39.3831C42.7438 39.6269 39.5875 39.5894 36.5188 39.3644C33.8563 39.1706 31.1625 38.8206 28.55 38.3081C23.6938 37.3456 18.4375 35.9144 14.5563 32.7581C12.7688 31.3019 11.3688 29.1519 10.6375 26.9956C9.86252 24.7456 9.51252 21.3331 10.1938 19.0206Z" fill="#B89278"/>
<path d="M28.3688 12.5706C28.2625 11.7456 29.0313 10.6769 29.4375 9.98936C29.975 9.08936 30.6438 7.90186 31.3938 7.15811C32.0125 6.53936 33.7063 6.05811 34.5625 6.21436C35.075 6.30186 35.725 6.68311 36.1876 6.89561C37.0188 7.26436 37.9563 7.71436 38.7375 8.16436C39.4313 8.56436 40.6688 9.67686 41.5813 9.33936C42.1813 9.11436 42.8376 8.43311 43.4438 8.12686C44.3876 7.65186 45.3625 7.23311 46.2875 6.73311C46.8563 6.42686 47.6938 5.73311 48.375 5.73936C49.3626 5.74561 50.225 6.57061 50.95 7.13936C51.4688 7.54561 52.0188 7.82686 52.5063 8.28936C52.9813 8.74561 53.3126 9.27061 53.7376 9.76436C54.1501 10.2456 55.3563 11.2581 55.375 11.9456C55.3875 12.6206 53.3313 13.4644 52.7875 13.6894C51.9313 14.0456 51.0001 14.1831 50.1188 14.4831C49.3938 14.7331 48.3813 14.7581 47.7313 15.1519C46.7063 15.7706 46.5188 17.7331 46.1938 18.7706C46.0001 19.3956 45.8438 19.8269 45.8375 20.5144C45.825 21.4019 45.0313 21.9206 44.3 22.4206C43.325 23.0894 42.3188 23.5269 41.2688 24.0456C40.3063 24.5206 39.7313 24.6456 38.6438 24.6456C37.6188 24.6519 37.525 24.4331 37.2188 23.4269C36.8063 22.0769 36.6063 20.7394 36.025 19.4394C35.7188 18.7581 35.35 18.1394 35.0813 17.4644C34.875 16.9519 34.775 16.3081 34.325 15.9331C33.7563 15.4394 32.9625 15.0519 32.3313 14.6081C31.875 14.2956 31.475 13.8081 30.9063 13.6894L28.3688 12.5706Z" fill="white"/>
<path d="M12.2563 21.7831C12.1751 21.4331 12.1063 21.0643 11.9751 20.7518C11.5188 19.6706 11.6376 18.4768 11.3001 17.3893C10.8876 16.0331 10.2501 14.8143 10.2251 13.3518C10.2001 11.7893 10.4688 10.7893 11.7001 9.77685C12.4438 9.16435 13.1126 8.57685 14.1188 8.6081C16.3188 8.67685 17.8001 10.3393 19.6001 11.3456C20.3751 11.7831 21.3563 11.6081 22.1876 11.8956C23.5438 12.3643 24.1313 13.5268 24.0376 14.8893C23.9376 16.2268 23.7813 17.6581 23.8001 18.9831C23.8188 19.7956 24.1688 21.2268 23.2938 21.7518C22.8376 22.0268 22.0751 22.0143 21.5501 21.9518C19.8501 21.7456 18.5063 20.5581 16.9188 20.0456C15.3626 19.5393 14.4938 20.8331 13.7188 21.9268C13.4876 22.2518 12.9001 23.2081 12.5063 22.4956C12.3876 22.2831 12.3126 22.0393 12.2563 21.7831Z" fill="#ED6C30"/>
<path d="M11.0625 26.7018C11.05 28.8643 12.1938 30.2643 13.125 32.0956C14.1688 34.1456 15.3563 35.7081 17.5375 36.7143C18.7688 37.2831 20.4375 37.4206 21.7375 37.0393C23.7625 36.4331 24.8125 34.8393 25.5188 32.9268C26.2625 30.9268 26.1875 28.7143 25.7313 26.6518C25.575 25.9268 25.825 25.1143 25.6 24.4518C25.325 23.6456 24.35 23.1206 23.6 22.8518C22.7938 22.5643 21.7625 22.7518 20.9 22.7331C19.8313 22.7143 18.9438 21.7393 18.2 20.9893C17.725 20.5143 17.3125 20.0018 16.625 19.8706C15.5063 19.6581 13.8938 19.7581 13.0063 20.5456C11.2563 22.1018 11.075 24.5268 11.0625 26.7018Z" fill="#ED6C30"/>
<path d="M22.9688 20.6706C22.9563 22.8331 24.1 24.2331 25.0313 26.0643C26.075 28.1143 27.2625 29.6768 29.4438 30.6831C30.675 31.2518 32.3375 31.3956 33.65 31.0081C35.675 30.4018 36.725 28.8081 37.4313 26.8956C38.0188 25.3081 38.0375 22.9331 37.3813 21.3456C36.9375 20.2706 36.2625 19.1643 35.5188 18.2893C34.775 17.4081 33.8563 16.6393 32.975 15.9143C32.5125 15.5393 32.1438 15.2143 31.5938 14.9581C31.05 14.7018 30.425 14.7456 29.875 14.5268C29.4 14.3393 29.0688 13.9331 28.5438 13.8331C27.425 13.6206 25.8125 13.7206 24.925 14.5081C23.1625 16.0706 22.9875 18.4893 22.9688 20.6706Z" fill="#ED6C30"/>
<path d="M55.4188 9.4206C55.15 9.1706 54.9 8.95185 54.7375 8.7706C53.1875 7.00185 51.725 5.55185 49.7 4.30185C47.9063 3.18935 46.175 4.28935 44.6063 5.2331C43.5438 5.86435 42.0188 6.82685 40.8125 7.9456C40.7188 7.9081 40.625 7.8706 40.5125 7.8456C40.2375 7.7831 39.4188 7.0831 39.2375 6.96435C38.3938 6.37685 37.5063 5.8706 36.5688 5.4581C34.825 4.70185 33.75 4.43935 32.0438 5.4081C30.2875 6.4081 28.9875 8.1581 27.6625 9.6456C27.2875 10.0706 26.9563 10.5706 26.7938 11.1268C26.6125 11.7268 26.4438 12.5206 25.6625 12.2706C24.9688 12.0518 24.5938 11.4831 24.0375 11.0643C23.2563 10.4831 22.2 10.1018 21.225 10.0456C19.45 9.93935 18.7938 8.6956 17.3125 8.08935C15.925 7.51435 14.5875 7.4456 13.1 7.5581C10.6188 7.75185 8.26255 9.86435 8.25005 12.4393C8.2438 13.8831 8.21255 15.3518 8.8313 16.6956C9.08755 17.2581 9.30005 17.3956 9.3563 18.0206C9.40005 18.5206 9.56255 18.9518 9.6438 19.4456C9.77505 20.2331 9.85005 21.2331 9.5938 22.0019C9.3438 22.7519 9.26255 23.4268 9.0938 24.2143C8.97505 24.8081 8.9188 25.1331 9.05005 25.7643C9.1938 26.4831 9.36255 27.1831 9.5563 27.8893C9.83755 28.8893 10.1813 29.8643 10.5188 30.8456C10.8125 31.7019 11.0125 32.1456 11.5875 32.8581C12.4125 33.8706 13.4125 34.7269 14.0813 35.8456C14.675 36.8519 15.8063 37.5268 16.9938 37.5518C17.6313 37.5644 18.9 37.5831 19.0625 36.7581C19.2063 36.0393 18.2313 35.9143 17.7875 35.6143C16.25 34.5581 14.9125 33.7206 13.9688 32.0519C13.1375 30.5831 12.725 28.9268 12.35 27.2956C12.0375 25.9394 12 24.4956 12.4313 23.1581C12.875 21.7831 14.0063 21.0956 15.45 21.0019C16.4063 20.9394 17.7375 22.6768 18.6375 23.1706C20.2125 24.0268 21.7625 22.6768 23.4 23.9768C24.8188 25.1018 24.475 27.3956 25.2563 28.8769C26.2125 30.6768 28.9438 29.0831 27.9875 27.2768C27.4938 26.3518 27.5438 25.0831 27.1125 24.0893C26.5875 22.8831 25.9 21.9706 24.925 21.2581C24.9188 21.1831 24.9313 21.1143 24.9125 21.0331C24.3688 19.0518 24.7813 15.6581 27.3563 15.4518C28.6688 15.3456 29.3375 15.6081 30.375 16.4206C31.2813 17.1268 32.4313 17.3268 33.2063 18.2081C33.325 18.3393 33.45 18.4393 33.5813 18.5206C33.7125 18.9643 33.9063 19.4331 34.1625 19.9331C34.5625 20.7206 34.8188 21.6081 35.2813 22.3644C35.4375 22.6206 35.6813 22.8081 35.8375 23.0643C36.0563 23.4331 36.1063 23.8768 36.325 24.2518C36.5188 24.5831 36.6938 25.1518 37.1063 25.1768C37.4375 25.2019 37.9063 25.0143 38.2125 24.8768C38.575 24.7143 39 24.6018 39.3188 24.3831C40.3438 23.6706 37.4688 19.1206 37.0688 18.2331C36.6563 17.3143 36.975 17.3018 37.775 16.7393C38.9188 15.9268 40.4375 14.6518 41.9375 14.7518C42.8 14.8143 43.5188 15.2956 44.0438 15.9331C44.525 16.5018 45.1563 17.9581 46.0688 17.1831C46.45 16.8581 46.7625 16.4393 47.1063 16.0831C47.2438 15.9456 47.3688 15.7831 47.45 15.6081C48.0813 14.2956 46.35 13.1643 45.4438 12.5706C44.9438 12.2456 44.5375 11.8206 43.975 11.5706C43.7188 11.4581 42.6688 11.4018 42.5313 11.2393C41.9875 10.5956 44.775 8.9581 45.1375 8.70185C46.0313 8.06435 47.6375 6.5081 48.7563 7.3331C50.9688 8.9581 52.4375 11.1143 54.4125 12.9393C54.9813 13.4643 55.925 12.7831 56.4188 12.4206C57.675 11.4893 56.3938 10.2956 55.4188 9.4206ZM22.525 20.8956C21.4125 20.8518 20.2875 20.8206 19.7313 20.2768C18.3188 18.9018 17.3188 18.3393 15.3063 18.1268C14.3625 18.0268 13.4438 18.2331 12.5938 18.5956C12.3813 17.9518 12.075 17.3331 11.7438 16.6831C11.1375 15.5018 10.85 14.2831 10.825 12.9643C10.7625 9.86435 13.4875 9.76435 15.6 10.2393C17.3125 10.6206 17.9625 12.6893 19.95 12.8143C21.1438 12.8956 22.6063 12.8268 23.425 13.9581C23.5688 14.1643 23.6438 14.3706 23.7 14.5831C22.4938 16.3706 22.15 18.7206 22.525 20.8956ZM35.3438 14.9831C35.1875 15.1206 35.0625 15.2581 34.925 15.3956C33.5938 14.3768 31.9438 13.5893 30.6188 12.6831C30.2938 12.4643 29.7375 12.4143 29.6188 12.0081C29.5125 11.6581 29.8063 11.2018 29.95 10.8893C30.3 10.0956 31.1875 9.32685 31.8 8.72685C32.6313 7.9206 33.5938 6.2581 34.9438 7.05185C36.2438 7.8206 37.4875 8.6581 38.775 9.4456C39.3438 9.78935 40.2875 10.4018 40.3625 11.0831C40.4188 11.6018 40.7313 11.7831 40.1688 11.9893C38.425 12.6268 36.7438 13.7643 35.3438 14.9831Z" fill="#FCC21B"/>
<path d="M53.3625 9.37686C53.0188 9.45186 52.6875 9.52061 52.3625 9.58311C51.8063 9.69561 51.3375 9.90186 50.8063 10.0894C49.6125 10.5206 48.675 10.9519 47.7688 11.8644C47.1063 12.5394 46.7313 13.3081 46.2125 14.0706C45.9375 14.4769 45.8375 14.9394 45.6688 15.3894C45.475 15.8894 45.1938 16.2831 45.0438 16.8081C44.8188 17.5956 44.6563 18.3519 44.5938 19.1769C44.5188 20.0831 44.8438 20.9206 44.9938 21.8144C45.0625 22.2456 45.1813 22.6081 45.3625 23.0019C45.5813 23.4831 45.5813 23.9956 45.7813 24.4769C46.15 25.3456 46.775 26.1019 47.3813 26.8081C48.0063 27.5394 48.725 28.1456 49.4688 28.7456C50.675 29.7206 52.1 30.0206 53.6125 30.2519C55.1563 30.4956 56.6563 30.1831 58.2063 30.1456C59.4438 30.1144 60.5938 29.9019 61.7813 29.5581C62.6125 29.3206 63.5375 29.0706 64.2375 28.5644C65.0938 27.9456 65.475 27.0831 65.975 26.1769C66.4688 25.2706 66.675 24.2331 66.9688 23.2519C67.2313 22.3331 67.425 21.3831 67.4125 20.4206C67.3688 17.9081 67.2688 15.1831 65.5125 13.2019C63.5188 10.9519 59.9188 9.24561 56.9438 8.97061C55.8063 8.87061 54.5438 9.12686 53.3625 9.37686Z" fill="#855C52"/>
<path d="M52.2375 22.4519V22.4144C52.2875 21.7769 52.2188 21.1144 52.4313 20.5019C52.6375 19.9269 52.9063 19.3706 53.0063 18.7581C53.1125 18.1394 52.6438 17.5456 52.1938 17.1831C51.5875 16.6894 50.7813 16.5081 50.1938 15.9894C49.8813 15.7144 49.4813 15.4581 49.8688 15.0894C50.3313 14.6456 51.3 14.7894 51.8938 14.8456C52.4313 14.8956 53.025 15.0081 53.5438 15.1456C53.8438 15.2269 54.1375 15.4331 54.4625 15.3519C54.9125 15.2269 55.2438 14.6894 55.5438 14.3581C55.9 13.9644 56.275 13.5894 56.7125 13.2831C57.1125 13.0019 58.1375 12.2456 58.6875 12.4831C59.5375 12.8519 58.375 14.2894 58.2125 14.8394C58.0375 15.4269 57.3188 16.5394 57.9188 17.0519C58.2 17.2894 58.5063 17.5019 58.8375 17.6644C59.1 17.7956 59.3313 17.8581 59.55 18.0519C60.0625 18.5019 60.6563 18.8456 61.1188 19.3519C61.4 19.6644 62.4938 20.4456 62.1063 20.9394C61.7125 21.4394 60.2875 20.7581 59.8188 20.5831C58.8813 20.2456 57.9 19.4331 56.8438 19.6831C56.3438 19.8019 55.95 20.1644 55.7063 20.6144C55.475 21.0581 55.3188 21.3644 54.9938 21.7644C54.7563 22.0581 54.5563 22.3831 54.3688 22.7081C54.1313 23.0894 54.0125 23.5269 53.8 23.9081C53.6063 24.2581 53.0875 24.7956 52.6313 24.4519C52.2688 24.1769 52.2125 22.8894 52.2375 22.4519Z" fill="white"/>
<path d="M57.6188 31.5144C55.3063 31.5144 52.7563 30.9206 49.6125 29.6394C49.1875 29.4644 48.7813 29.2331 48.3625 28.9269C47.925 28.6019 47.5438 28.2519 47.1688 27.9019L46.8875 27.6456C45.6688 26.5394 44.7938 25.4331 44.2875 24.3581C43.8063 23.3456 43.4875 22.4331 43.35 21.6331C43.125 20.3644 43.3938 18.8269 43.5813 17.7081C43.8188 16.3331 44.2626 15.0269 44.8938 13.8081C45.3688 12.8894 45.9063 11.9269 46.7125 11.1144C47.775 10.0456 49.1313 9.44561 50.325 8.91436C51.725 8.29561 53.2813 7.87061 54.8251 7.66436C59.3563 7.07061 64.4063 9.65186 66.8563 13.7581C67.3126 14.5144 67.7688 15.3331 68.0313 16.2581C68.4751 17.8456 68.8751 19.2519 68.5751 21.0831C68.3376 22.5331 68.0313 23.6269 67.5751 24.6269L67.4501 24.9206C67.1376 25.6081 66.7563 26.4644 66.2875 27.1019C64.0938 30.0269 61.1751 31.5144 57.6188 31.5144ZM56.2 10.1144C55.8563 10.1144 55.5 10.1331 55.1563 10.1831C53.8688 10.3519 52.5188 10.7206 51.4625 11.1831C50.2625 11.7144 49.2376 12.1644 48.5126 12.8956C47.9626 13.4644 47.5501 14.2019 47.1438 14.9769C46.6251 15.9581 46.2751 17.0144 46.0813 18.1206C45.9188 19.0706 45.7 20.3519 45.8438 21.1894C45.9438 21.7581 46.1875 22.4519 46.575 23.2519C46.9375 24.0144 47.6375 24.8769 48.5938 25.7456L48.8938 26.0206C49.2126 26.3144 49.5251 26.6081 49.8688 26.8581C50.1188 27.0394 50.3501 27.1769 50.5813 27.2706C53.3688 28.4081 55.675 28.9581 57.625 28.9581C60.375 28.9581 62.5376 27.8519 64.2501 25.5644C64.5501 25.1581 64.8688 24.4456 65.1188 23.8769L65.2563 23.5769C65.6126 22.7894 65.8626 21.8831 66.0625 20.6581C66.2688 19.3894 65.9938 18.4019 65.6126 17.0394C65.4126 16.3081 65.0501 15.6831 64.6751 15.0519C62.9063 12.1019 59.5 10.1144 56.2 10.1144Z" fill="#FCC21B"/>
<path d="M21.4875 36.3706C21.525 33.3269 22.85 29.4706 25.6313 27.8519C26.3688 27.4206 27.0438 26.9831 27.8563 26.7081C29.1563 26.2644 30.5563 26.2706 31.8813 25.9394C33.0938 25.6331 33.8063 25.0331 34.7438 24.2456C35.3938 23.7019 36.1563 23.2269 36.8938 22.8144C38.1063 22.1456 39.5563 21.8456 40.9375 21.8456C42.9875 21.8456 45.2375 22.2894 46.9313 23.4956C47.7063 24.0456 48.35 24.8581 48.8813 25.6144C49.4063 26.3831 49.3375 27.3519 49.4 28.2394C49.5063 29.6019 49.3813 30.9081 49.0375 32.2144C48.675 33.5894 48.425 34.9894 48.0125 36.3456C47.7688 37.1519 47.5313 38.0019 47.075 38.7206C46.6313 39.4206 46.0188 39.2831 45.2438 39.4331C44.6188 39.5519 43.9938 39.6644 43.3688 39.7581C42.1688 39.9394 40.9625 39.8706 39.75 39.8706C38.5563 39.8769 37.4125 39.7144 36.225 39.5894C35.1438 39.4769 34.0125 39.6706 32.9188 39.5956C31.45 39.5019 29.8313 39.3894 28.4375 38.9144C27.5875 38.6331 26.775 38.3581 25.9125 38.1706C25.2875 38.0331 24.2688 37.9394 23.7938 37.4831C23.025 37.1144 22.2688 36.7019 21.4875 36.3706Z" fill="#757F3F"/>
<path d="M42.0501 45.1331C41.6876 45.1331 41.3313 45.1268 40.9751 45.1143C40.4438 45.1018 39.9376 45.0643 39.4313 45.0331C37.6626 44.9081 35.8251 45.0018 33.8251 44.7831C29.8938 44.3518 25.7876 43.7518 22.6376 41.5456C21.6751 40.8768 20.7126 40.1081 20.3563 38.7643C20.1501 38.0081 20.0626 37.1893 20.0938 36.3206C20.1376 35.0331 20.4251 33.6706 21.0001 32.0268C21.5876 30.3393 22.7626 28.0581 25.0063 26.7518L25.3563 26.5456C25.9938 26.1706 26.6563 25.7768 27.4626 25.5018C28.3188 25.2081 29.1563 25.0956 29.9751 24.9831C30.5376 24.9018 31.0751 24.8268 31.5751 24.7018C32.5001 24.4706 33.0313 24.0268 33.9063 23.2956C34.5688 22.7393 35.3376 22.2268 36.2813 21.7018C37.6126 20.9643 39.2313 20.5706 40.9438 20.5706C43.5751 20.5706 45.9626 21.2393 47.6751 22.4518C48.6751 23.1581 49.4438 24.1831 49.9313 24.8893C50.5688 25.8081 50.6126 26.8331 50.6563 27.6581C50.6626 27.8206 50.6688 27.9768 50.6813 28.1393C50.7938 29.6268 50.6688 31.0706 50.2813 32.5331C50.1251 33.0768 50.0001 33.6268 49.8751 34.1706C49.6813 35.0018 49.4876 35.8643 49.2313 36.7143C49.0563 37.2893 48.9626 37.9018 48.8626 38.5456C48.7063 39.5456 48.5438 40.5893 48.0626 41.6643L47.8813 42.0831C47.5063 42.9831 47.0751 43.9956 45.5876 44.5831C44.3563 45.0643 43.0501 45.1331 42.0501 45.1331ZM40.9376 23.1143C39.6688 23.1143 38.4563 23.4018 37.5063 23.9268C36.7001 24.3706 36.0626 24.7956 35.5563 25.2206C34.5313 26.0768 33.6751 26.7956 32.1938 27.1706C31.5563 27.3268 30.9251 27.4206 30.3126 27.5018C29.5876 27.6018 28.8938 27.6956 28.2688 27.9081C27.7126 28.0956 27.2188 28.3956 26.6438 28.7393L26.2751 28.9518C24.7001 29.8706 23.8376 31.5893 23.3938 32.8706C22.9063 34.2643 22.6626 35.3893 22.6313 36.4143C22.6063 37.0268 22.6688 37.6018 22.8126 38.1143C22.9438 38.6268 23.4751 39.0331 24.0938 39.4643C26.7563 41.3268 30.5001 41.8643 34.1001 42.2581C36.0251 42.4643 37.8501 42.3768 39.6063 42.4956C40.4216 42.5552 41.2388 42.5865 42.0563 42.5893C42.8813 42.5893 43.8376 42.5456 44.6563 42.2268C45.1313 42.0393 45.2188 41.8706 45.5376 41.1081C45.5938 40.9581 45.6688 40.7956 45.7376 40.6331C46.0813 39.8706 46.2063 39.0393 46.3501 38.1643C46.4563 37.4581 46.5688 36.7331 46.8001 35.9831C47.0313 35.2143 47.2126 34.4331 47.4001 33.6143C47.5313 33.0393 47.6626 32.4706 47.8126 31.8956C48.1251 30.7081 48.2313 29.5456 48.1376 28.3393C48.1251 28.1581 48.1126 27.9706 48.1063 27.7831C48.0813 27.1831 48.0563 26.6581 47.8376 26.3393C47.4563 25.7956 46.8751 25.0081 46.2063 24.5268C44.9126 23.6143 43.0438 23.1143 40.9376 23.1143Z" fill="#FCC21B"/>
<path d="M30.5063 40.3456C30.4063 39.8268 30.8063 39.2706 30.9813 38.7956C31.2688 38.0143 31.5688 37.2268 31.9688 36.4956C32.6563 35.2331 33.25 34.0206 34.1938 32.9206C35.025 31.9581 36.7125 29.7831 38.2563 30.2081C38.275 30.5018 38.4625 30.8706 38.4563 31.1393C38.4375 31.5706 38.15 32.0331 37.9625 32.4143C37.4938 33.4081 36.7563 34.3331 36.2188 35.3018C35.6125 36.4018 35.1313 37.5768 34.625 38.7206C34.2 39.6831 33.6813 40.4143 33.675 41.4831V41.4581" fill="#FCC21B"/>
<path d="M39.1501 40.2893C39.2501 40.0581 39.3501 39.8206 39.4314 39.5893C39.8626 38.3643 40.1189 37.1143 40.6876 35.9268C41.7564 33.6643 43.4439 31.6393 45.7564 30.5956C46.5251 30.2518 47.3689 29.9831 48.1751 29.7206C48.9501 29.4706 49.9501 29.2768 50.5376 28.6893C51.5876 27.6331 52.4126 26.7393 53.9126 26.3518C55.8751 25.8518 58.6251 25.8456 60.5501 26.5456C61.5814 26.9206 62.4814 27.5706 63.3064 28.2893C64.0751 28.9643 64.6564 29.8956 65.2314 30.7581C65.9939 31.9018 66.1501 33.2893 66.1189 34.6268C66.1001 35.8581 66.3814 37.4393 65.4751 38.4518C65.1751 38.7768 64.6939 38.9393 64.3251 39.1956C63.7814 39.5706 63.3064 39.9956 62.7376 40.3518C60.9251 41.4831 58.5751 41.9268 56.5564 42.5768C51.7876 44.1018 46.6876 44.1518 41.7376 44.1643C40.8751 44.1706 38.8751 44.2018 38.6001 43.2143C38.3064 42.1268 38.7501 41.2143 39.1501 40.2893Z" fill="#757F3F"/>
<path d="M46.0626 43.2018C46.1251 42.0768 46.9376 40.8893 47.3439 39.8706C47.7564 38.8393 48.2439 37.6768 48.8501 36.7518C49.5314 35.7206 50.5439 34.9331 51.4751 34.1518C52.0501 33.6643 52.6689 33.0331 53.5314 33.1956C54.4376 33.3706 54.5064 34.1831 54.1689 34.9456C53.8689 35.6268 53.3314 36.3393 52.9376 36.9706C52.3501 37.9143 51.9064 38.8456 51.4876 39.8518C51.0189 40.9706 50.0689 41.9206 50.1939 43.2393V43.2018" fill="#FCC21B"/>
<path d="M41.4813 45.4268C40.4063 45.4268 37.8876 45.4268 37.3688 43.5393C36.9751 42.0956 37.5001 40.9018 37.9126 39.9393L37.9876 39.7831C38.0751 39.5768 38.1563 39.3768 38.2313 39.1643C38.3813 38.7456 38.5063 38.3206 38.6313 37.9018C38.8751 37.0768 39.1313 36.2268 39.5313 35.3768C40.4626 33.4143 42.2126 30.7956 45.2313 29.4331C46.0376 29.0706 46.8751 28.8018 47.6813 28.5393C47.9313 28.4581 48.1001 28.4081 48.2751 28.3581C48.7688 28.2143 49.3938 28.0331 49.6313 27.7893L49.8188 27.5956C50.8563 26.5518 51.8438 25.5643 53.5876 25.1206C54.6001 24.8643 55.7626 24.7268 56.9563 24.7268C58.0001 24.7268 59.5501 24.8331 60.9751 25.3518C62.0126 25.7268 63.0188 26.3581 64.1313 27.3331C64.9438 28.0393 65.5438 28.9518 66.0813 29.7518L66.2751 30.0456C67.3126 31.5893 67.4063 33.4081 67.3813 34.6456C67.3813 34.8768 67.3876 35.1143 67.3938 35.3581C67.4313 36.5831 67.4751 38.1143 66.4126 39.2956C66.0751 39.6706 65.6751 39.8768 65.3563 40.0456C65.2501 40.1018 65.1376 40.1581 65.0438 40.2268C64.8376 40.3706 64.6376 40.5206 64.4438 40.6706C64.1063 40.9268 63.7688 41.1831 63.4001 41.4143C61.9063 42.3456 60.1813 42.8331 58.5126 43.3081C57.9688 43.4581 57.4438 43.6081 56.9313 43.7706C51.8626 45.3956 46.4813 45.4081 41.7313 45.4206H41.4813V45.4268ZM39.7938 42.7081C39.9751 42.7831 40.4188 42.8893 41.4876 42.8893H41.6626C46.3063 42.8768 51.4813 42.8643 56.1751 41.3643C56.7126 41.1956 57.2688 41.0393 57.8313 40.8768C59.3376 40.4518 60.8813 40.0143 62.0688 39.2768C62.3688 39.0893 62.6376 38.8831 62.9126 38.6768C63.1376 38.5018 63.3688 38.3268 63.6126 38.1581C63.7876 38.0331 63.9813 37.9268 64.1813 37.8268C64.3063 37.7581 64.4938 37.6581 64.5438 37.6081C64.9313 37.1831 64.9001 36.3018 64.8751 35.4581C64.8688 35.1706 64.8626 34.8893 64.8626 34.6206C64.8876 33.1831 64.6813 32.2143 64.1876 31.4831L63.9876 31.1768C63.5188 30.4768 63.0376 29.7518 62.4813 29.2643C61.6126 28.5018 60.8626 28.0206 60.1313 27.7581C58.6126 27.2081 56.0251 27.1456 54.2438 27.6018C53.1751 27.8706 52.5688 28.4831 51.6563 29.4081L51.4563 29.6018C50.7501 30.3081 49.7876 30.5956 49.0126 30.8206L48.5876 30.9518C47.7438 31.2268 46.9751 31.4706 46.3063 31.7768C43.9876 32.8206 42.6001 34.9143 41.8563 36.4956C41.5313 37.1706 41.3126 37.8956 41.0876 38.6581C40.9501 39.1143 40.8126 39.5706 40.6563 40.0268C40.5626 40.2956 40.4501 40.5581 40.3438 40.8143L40.2751 40.9768C39.9188 41.7018 39.7188 42.2081 39.7938 42.7081Z" fill="#FCC21B"/>
</svg>
