<svg width="64" height="75" viewBox="0 0 64 75" fill="none" xmlns="http://www.w3.org/2000/svg">
<path d="M31.8507 0L63.7014 18.537V55.6109L31.8507 74.1478L0 55.6109V18.537L31.8507 0Z" fill="#F9CD74"/>
<path d="M63.7014 18.537L31.8507 37.0739L0 18.537L31.8507 0L63.7014 18.537Z" fill="#F9B659"/>
<path d="M31.8506 37.0738V74.1478L63.7013 55.6108V18.5369L31.8506 37.0738Z" fill="#EB9850"/>
<path d="M53.3249 24.5758V37.4091L42.9503 43.4478V30.6145L11.0996 12.0776L21.4742 6.03882L53.3249 24.5758Z" fill="#6B968B"/>
<path d="M53.3253 24.5757V37.409L42.9507 43.4477V30.6145L53.3253 24.5757Z" fill="#608778"/>
<path d="M5.79102 54.1849C4.9915 54.1849 4.34326 53.5465 4.34326 52.759V47.0553C4.34326 46.2679 4.9915 45.6294 5.79102 45.6294C6.59055 45.6294 7.23878 46.2679 7.23878 47.0553V52.759C7.23878 53.5465 6.59055 54.1849 5.79102 54.1849Z" fill="#EB9850"/>
<path d="M11.5823 57.037C10.7828 57.037 10.1345 56.3985 10.1345 55.611V49.9074C10.1345 49.1199 10.7828 48.4814 11.5823 48.4814C12.3818 48.4814 13.03 49.1199 13.03 49.9074V55.611C13.03 56.3985 12.3818 57.037 11.5823 57.037Z" fill="#EB9850"/>
</svg>
