<svg width="66" height="77" viewBox="0 0 66 77" fill="none" xmlns="http://www.w3.org/2000/svg">
<path d="M12.8394 5.79481C13.5099 8.7192 17.11 9.87181 19.3958 7.89441C19.7821 7.56014 20.3608 7.9743 20.1576 8.43957C18.9554 11.1936 21.1804 14.212 24.2094 13.9365C24.7214 13.8901 24.9426 14.5598 24.5003 14.8188C21.8855 16.3509 21.8855 20.0819 24.5003 21.6134C24.9426 21.8725 24.7214 22.5422 24.2094 22.4958C21.1804 22.2203 18.9554 25.2387 20.1576 27.9927C20.3608 28.4586 19.7821 28.8721 19.3958 28.5379C17.11 26.5605 13.5093 27.7137 12.8394 30.6375C12.7261 31.1321 12.0115 31.1321 11.8982 30.6375C11.2283 27.7131 7.62822 26.5605 5.34181 28.5379C4.95558 28.8721 4.37683 28.4586 4.58008 27.9927C5.78229 25.2387 3.55727 22.2203 0.5282 22.4958C0.0162017 22.5422 -0.204929 21.8725 0.237332 21.6134C2.85216 20.0819 2.85216 16.3509 0.237332 14.8188C-0.204333 14.5598 0.0162017 13.8901 0.5282 13.9365C3.55727 14.212 5.78229 11.1936 4.58008 8.43957C4.37683 7.9743 4.95558 7.56014 5.34181 7.89441C7.62822 9.87181 11.2283 8.7192 11.8982 5.79481C12.0115 5.30017 12.7261 5.30017 12.8394 5.79481Z" fill="#FD8F31"/>
<path d="M24.5002 21.6134C21.8854 20.0819 21.8854 16.3509 24.5002 14.8188C24.9425 14.5604 24.7213 13.8901 24.2093 13.9371C21.1809 14.2126 18.9558 11.1936 20.1575 8.43957C20.3607 7.9743 19.7825 7.56014 19.3957 7.89441C17.1099 9.87239 13.5098 8.7192 12.8393 5.79481C12.726 5.30017 12.0114 5.30017 11.8981 5.79481C11.6502 6.87633 11.0017 7.71405 10.1672 8.24277C13.1272 10.5873 15.0232 14.1826 15.0232 18.2167C15.0232 22.2502 13.1272 25.8461 10.1672 28.1907C11.0017 28.7188 11.6502 29.5571 11.8981 30.6381C12.0114 31.1327 12.7266 31.1327 12.8393 30.6381C13.5098 27.7137 17.1099 26.5611 19.3957 28.5385C19.7825 28.8727 20.3607 28.4591 20.1575 27.9933C18.9558 25.2393 21.1809 22.2209 24.2093 22.4964C24.7213 22.5428 24.9425 21.8725 24.5002 21.6134Z" fill="#FF7F1F"/>
<path d="M17.6899 18.216C17.6899 21.1127 15.3075 23.4603 12.3685 23.4603C9.42998 23.4603 7.04761 21.1127 7.04761 18.216C7.04761 15.3198 9.42998 12.9717 12.3685 12.9717C15.3075 12.9717 17.6899 15.3198 17.6899 18.216Z" fill="#FCCF3F"/>
<path d="M50.9656 47.4265V9.3483C50.9656 4.18509 46.7188 0 41.4808 0C36.2423 0 31.9961 4.18509 31.9961 9.3483V47.4265C27.7523 50.3691 24.9795 55.2333 24.9795 60.7361C24.9795 69.7184 32.3674 77 41.4808 77C50.5943 77 57.9822 69.7184 57.9822 60.7361C57.9822 55.2333 55.2088 50.3691 50.9656 47.4265Z" fill="#D8D8D8"/>
<path d="M41.4807 71.6735C35.1967 71.6735 30.0845 66.6342 30.0845 60.4412C30.0845 55.738 33.0498 51.5505 37.4992 49.9168V9.34833C37.4992 7.18411 39.2849 5.42407 41.4807 5.42407C43.676 5.42407 45.4623 7.18411 45.4623 9.34833V49.9168C49.9111 51.5499 52.877 55.7374 52.877 60.4406C52.877 66.6342 47.7648 71.6735 41.4807 71.6735Z" fill="#F3E8D7"/>
<path d="M37.4992 16.5237V49.9169C33.0498 51.55 30.0845 55.7374 30.0845 60.4407C30.0845 66.6343 35.1967 71.673 41.4807 71.673C47.7648 71.673 52.877 66.6343 52.877 60.4407C52.877 55.7374 49.9111 51.55 45.4623 49.9169V16.5237H37.4992Z" fill="#FC4E51"/>
<path d="M64.1023 27.1031H57.2627C56.6112 27.1031 56.0837 26.5826 56.0837 25.9411C56.0837 25.2995 56.6112 24.7791 57.2627 24.7791H64.1023C64.7531 24.7791 65.2812 25.2995 65.2812 25.9411C65.2812 26.5826 64.7531 27.1031 64.1023 27.1031Z" fill="#0D6E9A"/>
<path d="M60.3681 17.6856H57.2627C56.6112 17.6856 56.0837 17.1651 56.0837 16.5236C56.0837 15.8821 56.6112 15.3616 57.2627 15.3616H60.3681C61.0189 15.3616 61.547 15.8821 61.547 16.5236C61.547 17.1651 61.0189 17.6856 60.3681 17.6856Z" fill="#0D6E9A"/>
<path d="M61.4684 8.26785H57.2627C56.6112 8.26785 56.0837 7.74736 56.0837 7.10585C56.0837 6.46434 56.6112 5.94385 57.2627 5.94385H61.4684C62.1198 5.94385 62.6473 6.46434 62.6473 7.10585C62.6473 7.74736 62.1198 8.26785 61.4684 8.26785Z" fill="#0D6E9A"/>
<path d="M61.4684 45.9383H57.2627C56.6112 45.9383 56.0837 45.4178 56.0837 44.7763C56.0837 44.1342 56.6112 43.6143 57.2627 43.6143H61.4684C62.1198 43.6143 62.6473 44.1342 62.6473 44.7763C62.6473 45.4178 62.1198 45.9383 61.4684 45.9383Z" fill="#0D6E9A"/>
<path d="M60.3681 36.5208H57.2627C56.6112 36.5208 56.0837 36.0003 56.0837 35.3588C56.0837 34.7173 56.6112 34.1968 57.2627 34.1968H60.3681C61.0189 34.1968 61.547 34.7173 61.547 35.3588C61.547 36.0003 61.0189 36.5208 60.3681 36.5208Z" fill="#0D6E9A"/>
<path d="M45.4625 49.9169V16.5237H37.4994V49.9169C37.4994 49.9169 43.0038 52.4341 43.0038 60.4407C43.0038 64.8925 40.3628 68.7474 36.5439 70.5639C38.0382 71.2747 39.7131 71.673 41.4803 71.673C47.7644 71.673 52.8772 66.6343 52.8772 60.4407C52.8772 55.7374 49.9113 51.5506 45.4625 49.9169Z" fill="#E5394B"/>
</svg>
